<?xml version="1.0" standalone="no"?>
<!DOCTYPE svg PUBLIC "-//W3C//DTD SVG 20010904//EN"
 "http://www.w3.org/TR/2001/REC-SVG-20010904/DTD/svg10.dtd">
<svg version="1.0" xmlns="http://www.w3.org/2000/svg"
 width="500.000000pt" height="500.000000pt" viewBox="0 0 500.000000 500.000000"
 preserveAspectRatio="xMidYMid meet">
<metadata>
Created by potrace 1.14, written by Peter Selinger 2001-2017
</metadata>
<g transform="translate(0.000000,500.000000) scale(0.100000,-0.100000)"
fill="#000000" stroke="none">
<path d="M0 2500 l0 -2500 2500 0 2500 0 0 2500 0 2500 -2500 0 -2500 0 0
-2500z m2760 1093 c0 -20 -5 -23 -35 -23 -52 0 -103 -25 -115 -55 -12 -32 -14
-535 -2 -535 15 0 51 44 65 80 37 89 29 221 -18 292 -14 21 -25 51 -25 68 0
28 3 31 23 24 89 -27 161 -95 183 -173 39 -133 -43 -277 -188 -329 -26 -9 -48
-19 -48 -23 0 -3 18 -11 40 -18 89 -27 120 -77 169 -276 18 -71 39 -140 47
-152 21 -34 76 -31 104 4 16 20 23 24 32 15 9 -9 5 -19 -18 -43 -40 -42 -75
-59 -126 -59 -57 0 -108 27 -132 69 -11 19 -34 98 -52 176 -18 77 -39 156 -47
175 -15 34 -15 29 -16 -105 -2 -199 -18 -480 -32 -545 -37 -176 -152 -303
-313 -346 -76 -20 -126 -19 -126 5 0 14 10 20 47 25 105 14 178 91 209 219 15
60 18 136 22 460 l4 387 -37 0 -36 0 4 -212 c3 -117 8 -230 12 -250 l7 -38
-141 0 c-113 0 -141 3 -141 14 0 8 15 16 38 19 21 4 46 13 57 21 19 14 20 30
23 463 3 441 2 450 -18 476 -14 18 -32 27 -58 29 -27 2 -38 8 -40 22 -4 16 0
18 28 12 18 -3 82 -6 142 -6 l110 0 -7 -37 c-4 -21 -9 -138 -12 -260 l-4 -223
35 0 36 0 0 248 c-1 136 -5 267 -9 291 -12 59 -36 80 -99 88 -54 6 -67 15 -59
36 3 9 70 12 261 12 l256 0 0 -22z"/>
</g>
</svg>
