<svg xmlns="http://www.w3.org/2000/svg" xmlns:xlink="http://www.w3.org/1999/xlink" width="500" zoomAndPan="magnify" viewBox="0 0 375 374.999991" height="500" preserveAspectRatio="xMidYMid meet" version="1.0"><defs><g/><clipPath id="a5ddac9434"><path d="M 63.839844 176.0625 L 309.894531 176.0625 L 309.894531 198.691406 L 63.839844 198.691406 Z M 63.839844 176.0625 " clip-rule="nonzero"/></clipPath></defs><g fill="#418fde" fill-opacity="1"><g transform="translate(111.869379, 235.373376)"><g><path d="M -3.59375 24 C 0.238281 23.425781 3.375 22.226562 5.8125 20.40625 C 8.257812 18.582031 10.15625 15.421875 11.5 10.921875 C 12.84375 6.421875 13.515625 0.144531 13.515625 -7.90625 L 13.515625 -86.515625 C 13.515625 -90.160156 13.25 -92.796875 12.71875 -94.421875 C 12.1875 -96.046875 11.25 -97.144531 9.90625 -97.71875 C 8.570312 -98.300781 6.375 -98.6875 3.3125 -98.875 L 3.3125 -101.75 C 8.476562 -101.46875 16.476562 -101.328125 27.3125 -101.328125 C 38.519531 -101.328125 47.046875 -101.46875 52.890625 -101.75 L 52.890625 -98.875 C 49.828125 -98.6875 47.597656 -98.300781 46.203125 -97.71875 C 44.816406 -97.144531 43.882812 -96.046875 43.40625 -94.421875 C 42.925781 -92.796875 42.6875 -90.160156 42.6875 -86.515625 L 42.6875 -21.984375 C 42.6875 -16.429688 42.515625 -11.546875 42.171875 -7.328125 C 41.835938 -3.109375 41.191406 0.53125 40.234375 3.59375 C 37.941406 10.582031 33.101562 16.234375 25.71875 20.546875 C 18.34375 24.859375 8.570312 27.015625 -3.59375 27.015625 Z M -3.59375 24 "/></g></g></g><g fill="#418fde" fill-opacity="1"><g transform="translate(203.007678, 235.373376)"><g><path d="M 107.21875 -5.75 C 104.34375 -2.875 101.179688 -0.863281 97.734375 0.28125 C 94.285156 1.4375 90.257812 2.015625 85.65625 2.015625 C 79.039062 2.015625 73.910156 0.84375 70.265625 -1.5 C 66.628906 -3.851562 64.382812 -7.859375 63.53125 -13.515625 L 61.375 -27.875 C 60.414062 -34.582031 59.097656 -39.660156 57.421875 -43.109375 C 55.742188 -46.566406 53.226562 -48.296875 49.875 -48.296875 L 43.40625 -48.296875 L 43.40625 -15.234375 C 43.40625 -11.585938 43.664062 -8.953125 44.1875 -7.328125 C 44.71875 -5.703125 45.65625 -4.597656 47 -4.015625 C 48.34375 -3.441406 50.546875 -3.0625 53.609375 -2.875 L 53.609375 0 C 48.046875 -0.289062 40.046875 -0.4375 29.609375 -0.4375 C 18.015625 -0.4375 9.488281 -0.289062 4.03125 0 L 4.03125 -2.875 C 7.09375 -3.0625 9.316406 -3.441406 10.703125 -4.015625 C 12.097656 -4.597656 13.035156 -5.703125 13.515625 -7.328125 C 13.992188 -8.953125 14.234375 -11.585938 14.234375 -15.234375 L 14.234375 -86.515625 C 14.234375 -90.160156 13.96875 -92.796875 13.4375 -94.421875 C 12.90625 -96.046875 11.96875 -97.144531 10.625 -97.71875 C 9.289062 -98.300781 7.09375 -98.6875 4.03125 -98.875 L 4.03125 -101.75 C 9.488281 -101.46875 17.726562 -101.328125 28.75 -101.328125 L 45.265625 -101.46875 C 47.179688 -101.5625 49.382812 -101.609375 51.875 -101.609375 C 66.445312 -101.609375 77.300781 -99.546875 84.4375 -95.421875 C 91.570312 -91.304688 95.140625 -85.035156 95.140625 -76.609375 C 95.140625 -69.421875 92.457031 -63.285156 87.09375 -58.203125 C 81.726562 -53.128906 72.722656 -50.015625 60.078125 -48.859375 C 69.847656 -48.191406 77.222656 -46.347656 82.203125 -43.328125 C 87.191406 -40.304688 90.257812 -35.875 91.40625 -30.03125 L 94.421875 -15.09375 C 95.085938 -11.539062 95.898438 -9.09375 96.859375 -7.75 C 97.816406 -6.414062 99.160156 -5.75 100.890625 -5.75 C 102.617188 -5.75 104.101562 -6.367188 105.34375 -7.609375 Z M 51.15625 -98.875 C 48.957031 -98.875 47.304688 -98.535156 46.203125 -97.859375 C 45.097656 -97.191406 44.351562 -95.992188 43.96875 -94.265625 C 43.59375 -92.546875 43.40625 -89.960938 43.40625 -86.515625 L 43.40625 -51.15625 L 47.28125 -51.15625 C 54.082031 -51.15625 58.726562 -53.238281 61.21875 -57.40625 C 63.707031 -61.582031 64.953125 -67.453125 64.953125 -75.015625 C 64.953125 -82.878906 63.875 -88.820312 61.71875 -92.84375 C 59.570312 -96.863281 56.050781 -98.875 51.15625 -98.875 Z M 51.15625 -98.875 "/></g></g></g><path stroke-linecap="butt" transform="matrix(0, 0.75, -0.75, 0, 187.989059, 113.732541)" fill="none" stroke-linejoin="miter" d="M 0.00244489 1.501038 L 211.632667 1.501038 " stroke="#e3c6a7" stroke-width="3" stroke-opacity="1" stroke-miterlimit="4"/><g clip-path="url(#a5ddac9434)"><path fill="#38393c" d="M 63.839844 176.0625 L 309.894531 176.0625 L 309.894531 198.691406 L 63.839844 198.691406 Z M 63.839844 176.0625 " fill-opacity="1" fill-rule="nonzero"/></g><g fill="#e3c6a7" fill-opacity="1"><g transform="translate(136.671892, 190.878948)"><g><path d="M 7.5625 -0.796875 L 7.5625 0 L 1.421875 0 L 1.421875 -8.6875 L 7.375 -8.6875 L 7.375 -7.90625 L 2.328125 -7.90625 L 2.328125 -4.8125 L 6.828125 -4.8125 L 6.828125 -4.03125 L 2.328125 -4.03125 L 2.328125 -0.796875 Z M 7.5625 -0.796875 "/></g></g></g><g fill="#e3c6a7" fill-opacity="1"><g transform="translate(146.470739, 190.878948)"><g><path d="M 2.984375 0.0625 C 2.453125 0.0625 1.941406 -0.0078125 1.453125 -0.15625 C 0.972656 -0.3125 0.597656 -0.507812 0.328125 -0.75 L 0.71875 -1.4375 C 0.988281 -1.226562 1.332031 -1.050781 1.75 -0.90625 C 2.164062 -0.769531 2.597656 -0.703125 3.046875 -0.703125 C 3.640625 -0.703125 4.078125 -0.796875 4.359375 -0.984375 C 4.648438 -1.171875 4.796875 -1.4375 4.796875 -1.78125 C 4.796875 -2.019531 4.71875 -2.207031 4.5625 -2.34375 C 4.40625 -2.476562 4.207031 -2.578125 3.96875 -2.640625 C 3.726562 -2.710938 3.40625 -2.785156 3 -2.859375 C 2.476562 -2.953125 2.050781 -3.050781 1.71875 -3.15625 C 1.394531 -3.257812 1.117188 -3.4375 0.890625 -3.6875 C 0.671875 -3.9375 0.5625 -4.28125 0.5625 -4.71875 C 0.5625 -5.269531 0.785156 -5.71875 1.234375 -6.0625 C 1.691406 -6.40625 2.328125 -6.578125 3.140625 -6.578125 C 3.566406 -6.578125 3.988281 -6.519531 4.40625 -6.40625 C 4.832031 -6.300781 5.179688 -6.15625 5.453125 -5.96875 L 5.0625 -5.265625 C 4.53125 -5.640625 3.890625 -5.828125 3.140625 -5.828125 C 2.578125 -5.828125 2.148438 -5.726562 1.859375 -5.53125 C 1.578125 -5.332031 1.4375 -5.070312 1.4375 -4.75 C 1.4375 -4.5 1.515625 -4.296875 1.671875 -4.140625 C 1.835938 -3.992188 2.039062 -3.882812 2.28125 -3.8125 C 2.519531 -3.75 2.851562 -3.679688 3.28125 -3.609375 C 3.800781 -3.503906 4.21875 -3.398438 4.53125 -3.296875 C 4.84375 -3.203125 5.109375 -3.035156 5.328125 -2.796875 C 5.554688 -2.554688 5.671875 -2.222656 5.671875 -1.796875 C 5.671875 -1.222656 5.429688 -0.769531 4.953125 -0.4375 C 4.484375 -0.101562 3.828125 0.0625 2.984375 0.0625 Z M 2.984375 0.0625 "/></g></g></g><g fill="#e3c6a7" fill-opacity="1"><g transform="translate(154.034351, 190.878948)"><g><path d="M 4.671875 -0.390625 C 4.503906 -0.242188 4.296875 -0.128906 4.046875 -0.046875 C 3.804688 0.0234375 3.554688 0.0625 3.296875 0.0625 C 2.679688 0.0625 2.207031 -0.101562 1.875 -0.4375 C 1.539062 -0.769531 1.375 -1.238281 1.375 -1.84375 L 1.375 -5.78125 L 0.21875 -5.78125 L 0.21875 -6.53125 L 1.375 -6.53125 L 1.375 -7.96875 L 2.265625 -7.96875 L 2.265625 -6.53125 L 4.25 -6.53125 L 4.25 -5.78125 L 2.265625 -5.78125 L 2.265625 -1.890625 C 2.265625 -1.492188 2.359375 -1.195312 2.546875 -1 C 2.742188 -0.800781 3.023438 -0.703125 3.390625 -0.703125 C 3.578125 -0.703125 3.753906 -0.726562 3.921875 -0.78125 C 4.085938 -0.84375 4.234375 -0.925781 4.359375 -1.03125 Z M 4.671875 -0.390625 "/></g></g></g><g fill="#e3c6a7" fill-opacity="1"><g transform="translate(160.56727, 190.878948)"><g><path d="M 6.921875 -3 L 1.453125 -3 C 1.503906 -2.3125 1.765625 -1.757812 2.234375 -1.34375 C 2.703125 -0.925781 3.300781 -0.71875 4.03125 -0.71875 C 4.4375 -0.71875 4.804688 -0.789062 5.140625 -0.9375 C 5.484375 -1.082031 5.78125 -1.296875 6.03125 -1.578125 L 6.515625 -1 C 6.234375 -0.65625 5.875 -0.390625 5.4375 -0.203125 C 5 -0.0234375 4.519531 0.0625 4 0.0625 C 3.332031 0.0625 2.738281 -0.078125 2.21875 -0.359375 C 1.695312 -0.648438 1.289062 -1.046875 1 -1.546875 C 0.71875 -2.054688 0.578125 -2.628906 0.578125 -3.265625 C 0.578125 -3.898438 0.710938 -4.46875 0.984375 -4.96875 C 1.265625 -5.476562 1.644531 -5.875 2.125 -6.15625 C 2.613281 -6.4375 3.160156 -6.578125 3.765625 -6.578125 C 4.367188 -6.578125 4.910156 -6.4375 5.390625 -6.15625 C 5.867188 -5.875 6.242188 -5.484375 6.515625 -4.984375 C 6.796875 -4.484375 6.9375 -3.910156 6.9375 -3.265625 Z M 3.765625 -5.828125 C 3.128906 -5.828125 2.597656 -5.625 2.171875 -5.21875 C 1.753906 -4.820312 1.515625 -4.300781 1.453125 -3.65625 L 6.09375 -3.65625 C 6.03125 -4.300781 5.785156 -4.820312 5.359375 -5.21875 C 4.929688 -5.625 4.398438 -5.828125 3.765625 -5.828125 Z M 3.765625 -5.828125 "/></g></g></g><g fill="#e3c6a7" fill-opacity="1"><g transform="translate(169.558944, 190.878948)"><g><path d="M 4.59375 -6.578125 C 5.207031 -6.578125 5.757812 -6.4375 6.25 -6.15625 C 6.75 -5.882812 7.140625 -5.492188 7.421875 -4.984375 C 7.703125 -4.484375 7.84375 -3.910156 7.84375 -3.265625 C 7.84375 -2.617188 7.703125 -2.039062 7.421875 -1.53125 C 7.140625 -1.03125 6.75 -0.640625 6.25 -0.359375 C 5.757812 -0.078125 5.207031 0.0625 4.59375 0.0625 C 4.050781 0.0625 3.5625 -0.0507812 3.125 -0.28125 C 2.6875 -0.519531 2.335938 -0.859375 2.078125 -1.296875 L 2.078125 0 L 1.234375 0 L 1.234375 -9.21875 L 2.109375 -9.21875 L 2.109375 -5.296875 C 2.378906 -5.710938 2.726562 -6.03125 3.15625 -6.25 C 3.582031 -6.46875 4.0625 -6.578125 4.59375 -6.578125 Z M 4.53125 -0.71875 C 4.988281 -0.71875 5.398438 -0.820312 5.765625 -1.03125 C 6.140625 -1.25 6.429688 -1.550781 6.640625 -1.9375 C 6.859375 -2.320312 6.96875 -2.765625 6.96875 -3.265625 C 6.96875 -3.765625 6.859375 -4.207031 6.640625 -4.59375 C 6.429688 -4.988281 6.140625 -5.289062 5.765625 -5.5 C 5.398438 -5.707031 4.988281 -5.8125 4.53125 -5.8125 C 4.070312 -5.8125 3.65625 -5.707031 3.28125 -5.5 C 2.914062 -5.289062 2.625 -4.988281 2.40625 -4.59375 C 2.195312 -4.207031 2.09375 -3.765625 2.09375 -3.265625 C 2.09375 -2.765625 2.195312 -2.320312 2.40625 -1.9375 C 2.625 -1.550781 2.914062 -1.25 3.28125 -1.03125 C 3.65625 -0.820312 4.070312 -0.71875 4.53125 -0.71875 Z M 4.53125 -0.71875 "/></g></g></g><g fill="#e3c6a7" fill-opacity="1"><g transform="translate(179.469559, 190.878948)"><g><path d="M 3.515625 -6.578125 C 4.367188 -6.578125 5.019531 -6.363281 5.46875 -5.9375 C 5.925781 -5.507812 6.15625 -4.878906 6.15625 -4.046875 L 6.15625 0 L 5.3125 0 L 5.3125 -1.015625 C 5.113281 -0.679688 4.820312 -0.414062 4.4375 -0.21875 C 4.050781 -0.03125 3.59375 0.0625 3.0625 0.0625 C 2.332031 0.0625 1.753906 -0.109375 1.328125 -0.453125 C 0.898438 -0.804688 0.6875 -1.269531 0.6875 -1.84375 C 0.6875 -2.394531 0.882812 -2.835938 1.28125 -3.171875 C 1.6875 -3.515625 2.328125 -3.6875 3.203125 -3.6875 L 5.28125 -3.6875 L 5.28125 -4.09375 C 5.28125 -4.65625 5.117188 -5.082031 4.796875 -5.375 C 4.484375 -5.664062 4.023438 -5.8125 3.421875 -5.8125 C 3.015625 -5.8125 2.617188 -5.742188 2.234375 -5.609375 C 1.859375 -5.472656 1.53125 -5.285156 1.25 -5.046875 L 0.859375 -5.703125 C 1.191406 -5.984375 1.585938 -6.195312 2.046875 -6.34375 C 2.515625 -6.5 3.003906 -6.578125 3.515625 -6.578125 Z M 3.203125 -0.640625 C 3.703125 -0.640625 4.128906 -0.75 4.484375 -0.96875 C 4.835938 -1.195312 5.101562 -1.53125 5.28125 -1.96875 L 5.28125 -3.03125 L 3.234375 -3.03125 C 2.109375 -3.03125 1.546875 -2.640625 1.546875 -1.859375 C 1.546875 -1.484375 1.691406 -1.1875 1.984375 -0.96875 C 2.273438 -0.75 2.679688 -0.640625 3.203125 -0.640625 Z M 3.203125 -0.640625 "/></g></g></g><g fill="#e3c6a7" fill-opacity="1"><g transform="translate(188.287384, 190.878948)"><g><path d="M 4.5625 -6.578125 C 5.375 -6.578125 6.019531 -6.335938 6.5 -5.859375 C 6.988281 -5.390625 7.234375 -4.695312 7.234375 -3.78125 L 7.234375 0 L 6.359375 0 L 6.359375 -3.703125 C 6.359375 -4.378906 6.1875 -4.894531 5.84375 -5.25 C 5.507812 -5.601562 5.023438 -5.78125 4.390625 -5.78125 C 3.691406 -5.78125 3.132812 -5.570312 2.71875 -5.15625 C 2.3125 -4.738281 2.109375 -4.160156 2.109375 -3.421875 L 2.109375 0 L 1.234375 0 L 1.234375 -6.53125 L 2.078125 -6.53125 L 2.078125 -5.328125 C 2.316406 -5.722656 2.648438 -6.03125 3.078125 -6.25 C 3.503906 -6.46875 4 -6.578125 4.5625 -6.578125 Z M 4.5625 -6.578125 "/></g></g></g><g fill="#e3c6a7" fill-opacity="1"><g transform="translate(198.185575, 190.878948)"><g/></g></g><g fill="#e3c6a7" fill-opacity="1"><g transform="translate(202.930308, 190.878948)"><g><path d="M 7.359375 0 L 5.359375 -2.796875 C 5.140625 -2.765625 4.910156 -2.75 4.671875 -2.75 L 2.328125 -2.75 L 2.328125 0 L 1.421875 0 L 1.421875 -8.6875 L 4.671875 -8.6875 C 5.773438 -8.6875 6.640625 -8.421875 7.265625 -7.890625 C 7.898438 -7.367188 8.21875 -6.644531 8.21875 -5.71875 C 8.21875 -5.039062 8.046875 -4.46875 7.703125 -4 C 7.359375 -3.53125 6.867188 -3.191406 6.234375 -2.984375 L 8.359375 0 Z M 4.640625 -3.546875 C 5.503906 -3.546875 6.160156 -3.734375 6.609375 -4.109375 C 7.066406 -4.492188 7.296875 -5.03125 7.296875 -5.71875 C 7.296875 -6.414062 7.066406 -6.953125 6.609375 -7.328125 C 6.160156 -7.710938 5.503906 -7.90625 4.640625 -7.90625 L 2.328125 -7.90625 L 2.328125 -3.546875 Z M 4.640625 -3.546875 "/></g></g></g><g fill="#e3c6a7" fill-opacity="1"><g transform="translate(213.399725, 190.878948)"><g><path d="M 3.515625 -6.578125 C 4.367188 -6.578125 5.019531 -6.363281 5.46875 -5.9375 C 5.925781 -5.507812 6.15625 -4.878906 6.15625 -4.046875 L 6.15625 0 L 5.3125 0 L 5.3125 -1.015625 C 5.113281 -0.679688 4.820312 -0.414062 4.4375 -0.21875 C 4.050781 -0.03125 3.59375 0.0625 3.0625 0.0625 C 2.332031 0.0625 1.753906 -0.109375 1.328125 -0.453125 C 0.898438 -0.804688 0.6875 -1.269531 0.6875 -1.84375 C 0.6875 -2.394531 0.882812 -2.835938 1.28125 -3.171875 C 1.6875 -3.515625 2.328125 -3.6875 3.203125 -3.6875 L 5.28125 -3.6875 L 5.28125 -4.09375 C 5.28125 -4.65625 5.117188 -5.082031 4.796875 -5.375 C 4.484375 -5.664062 4.023438 -5.8125 3.421875 -5.8125 C 3.015625 -5.8125 2.617188 -5.742188 2.234375 -5.609375 C 1.859375 -5.472656 1.53125 -5.285156 1.25 -5.046875 L 0.859375 -5.703125 C 1.191406 -5.984375 1.585938 -6.195312 2.046875 -6.34375 C 2.515625 -6.5 3.003906 -6.578125 3.515625 -6.578125 Z M 3.203125 -0.640625 C 3.703125 -0.640625 4.128906 -0.75 4.484375 -0.96875 C 4.835938 -1.195312 5.101562 -1.53125 5.28125 -1.96875 L 5.28125 -3.03125 L 3.234375 -3.03125 C 2.109375 -3.03125 1.546875 -2.640625 1.546875 -1.859375 C 1.546875 -1.484375 1.691406 -1.1875 1.984375 -0.96875 C 2.273438 -0.75 2.679688 -0.640625 3.203125 -0.640625 Z M 3.203125 -0.640625 "/></g></g></g><g fill="#e3c6a7" fill-opacity="1"><g transform="translate(222.217548, 190.878948)"><g><path d="M 4.5625 -6.578125 C 5.375 -6.578125 6.019531 -6.335938 6.5 -5.859375 C 6.988281 -5.390625 7.234375 -4.695312 7.234375 -3.78125 L 7.234375 0 L 6.359375 0 L 6.359375 -3.703125 C 6.359375 -4.378906 6.1875 -4.894531 5.84375 -5.25 C 5.507812 -5.601562 5.023438 -5.78125 4.390625 -5.78125 C 3.691406 -5.78125 3.132812 -5.570312 2.71875 -5.15625 C 2.3125 -4.738281 2.109375 -4.160156 2.109375 -3.421875 L 2.109375 0 L 1.234375 0 L 1.234375 -6.53125 L 2.078125 -6.53125 L 2.078125 -5.328125 C 2.316406 -5.722656 2.648438 -6.03125 3.078125 -6.25 C 3.503906 -6.46875 4 -6.578125 4.5625 -6.578125 Z M 4.5625 -6.578125 "/></g></g></g><g fill="#e3c6a7" fill-opacity="1"><g transform="translate(232.115735, 190.878948)"><g><path d="M 7.28125 -6.53125 L 7.28125 -0.796875 C 7.28125 0.316406 7.007812 1.140625 6.46875 1.671875 C 5.925781 2.203125 5.109375 2.46875 4.015625 2.46875 C 3.410156 2.46875 2.835938 2.378906 2.296875 2.203125 C 1.753906 2.023438 1.3125 1.78125 0.96875 1.46875 L 1.421875 0.796875 C 1.734375 1.078125 2.113281 1.296875 2.5625 1.453125 C 3.007812 1.609375 3.484375 1.6875 3.984375 1.6875 C 4.816406 1.6875 5.425781 1.492188 5.8125 1.109375 C 6.195312 0.722656 6.390625 0.125 6.390625 -0.6875 L 6.390625 -1.515625 C 6.117188 -1.097656 5.757812 -0.78125 5.3125 -0.5625 C 4.875 -0.351562 4.382812 -0.25 3.84375 -0.25 C 3.238281 -0.25 2.679688 -0.382812 2.171875 -0.65625 C 1.671875 -0.925781 1.28125 -1.300781 1 -1.78125 C 0.71875 -2.269531 0.578125 -2.816406 0.578125 -3.421875 C 0.578125 -4.035156 0.71875 -4.582031 1 -5.0625 C 1.28125 -5.539062 1.671875 -5.910156 2.171875 -6.171875 C 2.671875 -6.441406 3.226562 -6.578125 3.84375 -6.578125 C 4.40625 -6.578125 4.910156 -6.460938 5.359375 -6.234375 C 5.804688 -6.015625 6.164062 -5.695312 6.4375 -5.28125 L 6.4375 -6.53125 Z M 3.9375 -1.03125 C 4.40625 -1.03125 4.828125 -1.128906 5.203125 -1.328125 C 5.585938 -1.535156 5.882812 -1.820312 6.09375 -2.1875 C 6.3125 -2.550781 6.421875 -2.960938 6.421875 -3.421875 C 6.421875 -3.890625 6.3125 -4.300781 6.09375 -4.65625 C 5.882812 -5.019531 5.59375 -5.300781 5.21875 -5.5 C 4.84375 -5.707031 4.414062 -5.8125 3.9375 -5.8125 C 3.46875 -5.8125 3.039062 -5.710938 2.65625 -5.515625 C 2.28125 -5.316406 1.988281 -5.035156 1.78125 -4.671875 C 1.570312 -4.304688 1.46875 -3.890625 1.46875 -3.421875 C 1.46875 -2.960938 1.570312 -2.550781 1.78125 -2.1875 C 1.988281 -1.820312 2.28125 -1.535156 2.65625 -1.328125 C 3.039062 -1.128906 3.46875 -1.03125 3.9375 -1.03125 Z M 3.9375 -1.03125 "/></g></g></g><g fill="#e3c6a7" fill-opacity="1"><g transform="translate(242.125688, 190.878948)"><g><path d="M 6.921875 -3 L 1.453125 -3 C 1.503906 -2.3125 1.765625 -1.757812 2.234375 -1.34375 C 2.703125 -0.925781 3.300781 -0.71875 4.03125 -0.71875 C 4.4375 -0.71875 4.804688 -0.789062 5.140625 -0.9375 C 5.484375 -1.082031 5.78125 -1.296875 6.03125 -1.578125 L 6.515625 -1 C 6.234375 -0.65625 5.875 -0.390625 5.4375 -0.203125 C 5 -0.0234375 4.519531 0.0625 4 0.0625 C 3.332031 0.0625 2.738281 -0.078125 2.21875 -0.359375 C 1.695312 -0.648438 1.289062 -1.046875 1 -1.546875 C 0.71875 -2.054688 0.578125 -2.628906 0.578125 -3.265625 C 0.578125 -3.898438 0.710938 -4.46875 0.984375 -4.96875 C 1.265625 -5.476562 1.644531 -5.875 2.125 -6.15625 C 2.613281 -6.4375 3.160156 -6.578125 3.765625 -6.578125 C 4.367188 -6.578125 4.910156 -6.4375 5.390625 -6.15625 C 5.867188 -5.875 6.242188 -5.484375 6.515625 -4.984375 C 6.796875 -4.484375 6.9375 -3.910156 6.9375 -3.265625 Z M 3.765625 -5.828125 C 3.128906 -5.828125 2.597656 -5.625 2.171875 -5.21875 C 1.753906 -4.820312 1.515625 -4.300781 1.453125 -3.65625 L 6.09375 -3.65625 C 6.03125 -4.300781 5.785156 -4.820312 5.359375 -5.21875 C 4.929688 -5.625 4.398438 -5.828125 3.765625 -5.828125 Z M 3.765625 -5.828125 "/></g></g></g><g fill="#e3c6a7" fill-opacity="1"><g transform="translate(251.117366, 190.878948)"><g><path d="M 1.234375 -9.21875 L 2.109375 -9.21875 L 2.109375 0 L 1.234375 0 Z M 1.234375 -9.21875 "/></g></g></g></svg>